<svg xmlns="http://www.w3.org/2000/svg" xmlns:xlink="http://www.w3.org/1999/xlink" width="897" height="232" viewBox="0 0 897 232">
  <defs>
    <linearGradient id="linear-gradient" x1="0.082" y1="0.905" x2="1.493" y2="-0.434" gradientUnits="objectBoundingBox">
      <stop offset="0" stop-color="#41f0a5"/>
      <stop offset="1" stop-color="#95f8c1"/>
    </linearGradient>
    <linearGradient id="linear-gradient-2" x1="0.948" y1="-0.058" x2="0.061" y2="1" xlink:href="#linear-gradient"/>
    <clipPath id="clip-path">
      <rect id="Rect치ngulo_42" data-name="Rect치ngulo 42" width="652.441" height="101.956" fill="#212121"/>
    </clipPath>
    <clipPath id="clip-Digital-negativo">
      <rect width="897" height="232"/>
    </clipPath>
  </defs>
  <g id="Digital-negativo" clip-path="url(#clip-Digital-negativo)">
    <rect width="897" height="232" fill="rgba(255,255,255,0)"/>
    <g id="Grupo_1152" data-name="Grupo 1152" transform="translate(36.73 44.931)">
      <path id="Trazado_173" data-name="Trazado 173" d="M101.9,74.989v21.5a5.418,5.418,0,0,1-5.411,5.411H15.471a5.417,5.417,0,0,1-5.412-5.411V15.47a5.418,5.418,0,0,1,5.412-5.411H96.492A5.418,5.418,0,0,1,101.9,15.47v12.9h10.059V15.47A15.488,15.488,0,0,0,96.492,0H15.471A15.488,15.488,0,0,0,0,15.47V96.491a15.488,15.488,0,0,0,15.471,15.47H96.492a15.488,15.488,0,0,0,15.47-15.47v-21.5Z" transform="translate(0)" fill="url(#linear-gradient)"/>
      <path id="Trazado_175" data-name="Trazado 175" d="M101.9,74.989v21.5a5.418,5.418,0,0,1-5.411,5.411H15.471a5.417,5.417,0,0,1-5.412-5.411V15.47a5.418,5.418,0,0,1,5.412-5.411H96.492A5.418,5.418,0,0,1,101.9,15.47v12.9h10.059V15.47A15.488,15.488,0,0,0,96.492,0H15.471A15.488,15.488,0,0,0,0,15.47V96.491a15.488,15.488,0,0,0,15.471,15.47H96.492a15.488,15.488,0,0,0,15.47-15.47v-21.5Z" transform="translate(157.884 157.884) rotate(180)" fill="url(#linear-gradient-2)"/>
      <rect id="Rect치ngulo_66" data-name="Rect치ngulo 66" width="157.884" height="157.884" transform="translate(0)" fill="none"/>
    </g>
    <g id="Grupo_1158" data-name="Grupo 1158" transform="translate(227.083 40.856)">
      <g id="Grupo_1155" data-name="Grupo 1155" transform="translate(0)">
        <path id="Trazado_312" data-name="Trazado 312" d="M800.314-2595.309h62.51v13.8H840.115v71.422H823.023v-71.422H800.314Z" transform="translate(-800.314 2600.437)" fill="#1c1c1c"/>
        <path id="Trazado_313" data-name="Trazado 313" d="M987.493-2608.113h17.093v31.133c4.395-5.738,11.965-9.4,21-9.4,15.261,0,26.372,10.255,26.372,28.935v39.679h-17.092v-37.359c0-10.866-5.983-16.726-15.017-16.726-9.279,0-15.261,5.86-15.261,16.726v37.359H987.493Z" transform="translate(-912.531 2608.113)" fill="#1c1c1c"/>
        <path id="Trazado_314" data-name="Trazado 314" d="M1211.964-2484.318c-19.656,0-33.94-13.675-33.94-34.918,0-21.366,13.918-34.917,33.94-34.917,19.535,0,33.331,13.308,33.331,33.453a39.97,39.97,0,0,1-.488,6.593H1195.36c.855,10.011,7.692,15.628,16.238,15.628,7.325,0,11.354-3.664,13.552-8.181h18.435C1239.923-2494.208,1228.691-2484.318,1211.964-2484.318Zm-16.482-41.267h32.109c-.244-8.912-7.325-14.528-16.115-14.528C1203.3-2540.113,1196.826-2534.864,1195.483-2525.585Z" transform="translate(-1026.758 2575.763)" fill="#1c1c1c"/>
        <path id="Trazado_315" data-name="Trazado 315" d="M1408.466-2542.811h-14.284v32.719h-17.092v-85.218h31.377c20.511,0,30.767,11.6,30.767,26.372C1439.232-2556,1430.441-2542.811,1408.466-2542.811Zm-.733-13.8c9.645,0,13.918-4.762,13.918-12.331,0-7.814-4.273-12.453-13.918-12.453h-13.552v24.784Z" transform="translate(-1146.101 2600.437)" fill="#1c1c1c"/>
        <path id="Trazado_316" data-name="Trazado 316" d="M1586.071-2484.318c-19.534,0-34.307-13.675-34.307-34.918,0-21.366,15.261-34.917,34.8-34.917s34.8,13.552,34.8,34.917C1621.355-2497.993,1605.728-2484.318,1586.071-2484.318Zm0-14.9c9.034,0,17.7-6.593,17.7-20.023,0-13.552-8.425-20.022-17.459-20.022s-17.214,6.471-17.214,20.022C1569.1-2505.806,1576.914-2499.213,1586.071-2499.213Z" transform="translate(-1250.822 2575.763)" fill="#1c1c1c"/>
        <path id="Trazado_317" data-name="Trazado 317" d="M1738.024-2551.41h17.336l11.965,51.521,12.942-51.521h18.069l12.7,51.4,11.965-51.4h16.36l-19.779,67.637h-18.435l-12.331-47.249-12.331,47.249h-18.558Z" transform="translate(-1362.489 2574.118)" fill="#1c1c1c"/>
        <path id="Trazado_318" data-name="Trazado 318" d="M2037.184-2484.318c-19.656,0-33.94-13.675-33.94-34.918,0-21.366,13.918-34.917,33.94-34.917,19.535,0,33.331,13.308,33.331,33.453a39.957,39.957,0,0,1-.488,6.593H2020.58c.854,10.011,7.692,15.628,16.238,15.628,7.326,0,11.354-3.664,13.552-8.181h18.435C2065.143-2494.208,2053.911-2484.318,2037.184-2484.318Zm-16.481-41.267h32.109c-.244-8.912-7.325-14.528-16.115-14.528C2028.516-2540.113,2022.045-2534.864,2020.7-2525.585Z" transform="translate(-1521.493 2575.763)" fill="#1c1c1c"/>
        <path id="Trazado_319" data-name="Trazado 319" d="M2219.4-2485.235h-17.092v-67.637H2219.4v10.5a23.46,23.46,0,0,1,20.755-11.477v17.947h-4.517c-10.134,0-16.238,3.907-16.238,16.971Z" transform="translate(-1640.836 2575.58)" fill="#1c1c1c"/>
      </g>
      <g id="Grupo_1157" data-name="Grupo 1157" transform="translate(21.521 108.02)">
        <g id="Grupo_1156" data-name="Grupo 1156" transform="translate(0 0)">
          <path id="Trazado_320" data-name="Trazado 320" d="M875.194-2321.569c10.572,0,18.572,7.857,18.572,20.072,0,12.143-8.072,20.358-18.572,20.358-7.143,0-12.215-3.572-14.643-7.857v7.214h-6.5v-52.857h6.5v21A16.584,16.584,0,0,1,875.194-2321.569Zm-1.357,5.643c-7.072,0-13.286,5.428-13.286,14.5,0,9.214,6.214,14.572,13.286,14.572,7.214,0,13.286-5.428,13.286-14.643S881.051-2315.926,873.837-2315.926Z" transform="translate(-854.051 2336.141)" fill="#1c1c1c"/>
          <path id="Trazado_321" data-name="Trazado 321" d="M1008.806-2261.252h-6.5v-5.786c-2.5,4.072-7.286,6.358-12.5,6.358-9,0-16.072-5.572-16.072-16.786V-2300.4h6.429v22.072c0,7.929,4.357,12,10.929,12,6.714,0,11.214-4.143,11.214-12.571v-21.5h6.5Z" transform="translate(-925.803 2315.611)" fill="#1c1c1c"/>
          <path id="Trazado_322" data-name="Trazado 322" d="M1099.43-2261.571c-9.143,0-15.572-5-16-12.144h6.714c.358,3.786,3.715,6.643,9.215,6.643,5.143,0,8-2.572,8-5.785,0-8.715-23.143-3.643-23.143-18.215,0-6,5.643-10.929,14.358-10.929,8.643,0,14.358,4.643,14.786,12.285h-6.5c-.285-3.928-3.286-6.786-8.5-6.786-4.786,0-7.643,2.286-7.643,5.429,0,9.286,22.715,4.214,23,18.215C1113.716-2266.429,1108.073-2261.571,1099.43-2261.571Z" transform="translate(-991.568 2316.573)" fill="#1c1c1c"/>
          <path id="Trazado_323" data-name="Trazado 323" d="M1179.211-2333.958a4.361,4.361,0,0,1,4.428-4.429,4.331,4.331,0,0,1,4.286,4.429,4.331,4.331,0,0,1-4.286,4.429A4.36,4.36,0,0,1,1179.211-2333.958Zm1.071,10.786h6.5v39.143h-6.5Z" transform="translate(-1048.99 2338.387)" fill="#1c1c1c"/>
          <path id="Trazado_324" data-name="Trazado 324" d="M1254.405-2284.465c0-8-4.357-12.071-10.928-12.071-6.643,0-11.214,4.143-11.214,12.572v21.644h-6.5v-39.144h6.5v5.572c2.571-4.072,7.286-6.285,12.572-6.285,9.072,0,16,5.571,16,16.786v23.072h-6.429Z" transform="translate(-1076.899 2316.679)" fill="#1c1c1c"/>
          <path id="Trazado_325" data-name="Trazado 325" d="M1353.209-2261.571c-11.143,0-19.357-7.858-19.357-20.287,0-12.357,7.929-20.143,19.357-20.143,11.358,0,18.787,8,18.787,18.715a35.142,35.142,0,0,1-.215,3.929h-31.286c.5,7.928,6.072,12.285,12.715,12.285,5.857,0,9.572-3,11-7.214h7C1369.21-2267.143,1362.924-2261.571,1353.209-2261.571Zm-12.643-23.073h24.715c.072-7.643-5.643-11.858-12.357-11.858C1346.567-2296.5,1341.281-2292.286,1340.566-2284.644Z" transform="translate(-1141.701 2316.573)" fill="#1c1c1c"/>
          <path id="Trazado_326" data-name="Trazado 326" d="M1461.152-2261.571c-9.143,0-15.572-5-16-12.144h6.714c.357,3.786,3.714,6.643,9.215,6.643,5.142,0,8-2.572,8-5.785,0-8.715-23.144-3.643-23.144-18.215,0-6,5.643-10.929,14.358-10.929,8.643,0,14.357,4.643,14.786,12.285h-6.5c-.286-3.928-3.285-6.786-8.5-6.786-4.786,0-7.643,2.286-7.643,5.429,0,9.286,22.715,4.214,23,18.215C1475.438-2266.429,1469.795-2261.571,1461.152-2261.571Z" transform="translate(-1208.427 2316.573)" fill="#1c1c1c"/>
          <path id="Trazado_327" data-name="Trazado 327" d="M1554.258-2261.571c-9.143,0-15.572-5-16-12.144h6.714c.357,3.786,3.715,6.643,9.215,6.643,5.143,0,8-2.572,8-5.785,0-8.715-23.143-3.643-23.143-18.215,0-6,5.643-10.929,14.357-10.929,8.643,0,14.358,4.643,14.786,12.285h-6.5c-.285-3.928-3.285-6.786-8.5-6.786-4.786,0-7.643,2.286-7.643,5.429,0,9.286,22.715,4.214,23,18.215C1568.543-2266.429,1562.9-2261.571,1554.258-2261.571Z" transform="translate(-1264.245 2316.573)" fill="#1c1c1c"/>
          <path id="Trazado_328" data-name="Trazado 328" d="M1694.986-2261.571c-9.143,0-15.572-5-16-12.144h6.714c.357,3.786,3.714,6.643,9.215,6.643,5.143,0,8-2.572,8-5.785,0-8.715-23.144-3.643-23.144-18.215,0-6,5.643-10.929,14.358-10.929,8.643,0,14.357,4.643,14.786,12.285h-6.5c-.286-3.928-3.285-6.786-8.5-6.786-4.786,0-7.643,2.286-7.643,5.429,0,9.286,22.715,4.214,23,18.215C1709.272-2266.429,1703.629-2261.571,1694.986-2261.571Z" transform="translate(-1348.615 2316.573)" fill="#1c1c1c"/>
          <path id="Trazado_329" data-name="Trazado 329" d="M1790.45-2302c9.714,0,16.072,5,18.072,13.215h-7c-1.357-4.715-5.286-7.715-11.071-7.715-7.143,0-12.429,5.072-12.429,14.643,0,9.715,5.286,14.786,12.429,14.786,5.785,0,9.643-2.786,11.071-7.714h7c-2,7.785-8.357,13.215-18.072,13.215-11.143,0-19.072-7.858-19.072-20.287C1771.378-2294.144,1779.307-2302,1790.45-2302Z" transform="translate(-1404.006 2316.573)" fill="#1c1c1c"/>
          <path id="Trazado_330" data-name="Trazado 330" d="M1885.709-2334.641h6.5v19.358c2.572-4.143,7.428-6.357,12.929-6.357,8.714,0,15.643,5.571,15.643,16.786v23.072h-6.429v-22.143c0-8-4.357-12.072-10.928-12.072-6.643,0-11.214,4.143-11.214,12.572v21.643h-6.5Z" transform="translate(-1472.549 2336.141)" fill="#1c1c1c"/>
          <path id="Trazado_331" data-name="Trazado 331" d="M2013.3-2261.571c-11.071,0-19.5-7.858-19.5-20.287,0-12.357,8.714-20.143,19.786-20.143,11.143,0,19.786,7.786,19.786,20.143C2033.373-2269.429,2024.443-2261.571,2013.3-2261.571Zm0-5.715c6.786,0,13.429-4.643,13.429-14.572,0-9.857-6.5-14.5-13.215-14.5-6.857,0-13.071,4.643-13.071,14.5C2000.444-2271.929,2006.515-2267.286,2013.3-2267.286Z" transform="translate(-1537.353 2316.573)" fill="#1c1c1c"/>
          <path id="Trazado_332" data-name="Trazado 332" d="M2127.455-2261.571c-11.071,0-19.5-7.858-19.5-20.287,0-12.357,8.715-20.143,19.786-20.143,11.143,0,19.786,7.786,19.786,20.143C2147.527-2269.429,2138.6-2261.571,2127.455-2261.571Zm0-5.715c6.786,0,13.429-4.643,13.429-14.572,0-9.857-6.5-14.5-13.215-14.5-6.857,0-13.071,4.643-13.071,14.5C2114.6-2271.929,2120.669-2267.286,2127.455-2267.286Z" transform="translate(-1605.79 2316.573)" fill="#1c1c1c"/>
          <path id="Trazado_333" data-name="Trazado 333" d="M2228.173-2334.641h6.5v52.857h-6.5Z" transform="translate(-1677.863 2336.141)" fill="#1c1c1c"/>
        </g>
      </g>
    </g>
  </g>
</svg>
